<?xml version="1.0" encoding="utf-8"?>
<!DOCTYPE svg PUBLIC "-//W3C//DTD SVG 1.1//EN" "http://www.w3.org/Graphics/SVG/1.1/DTD/svg11.dtd">
<svg version="1.1"
	 xmlns="http://www.w3.org/2000/svg" xmlns:xlink="http://www.w3.org/1999/xlink"
	 x="0px" y="0px" width="2880px" height="640px" viewBox="-2.475 -1.05 2880 640" enable-background="new -2.475 -1.05 2880 640"
	 xml:space="preserve">
<defs>
</defs>
<g fill="none" stroke="#000000">
<line stroke-width="2" x1="197.125" y1="63.25" x2="135.125" y2="63.25"/>
<line stroke-width="2" x1="325.025" y1="48.75" x2="282.725" y2="48.75"/>
<line stroke-width="2" x1="179.325" y1="286.05" x2="210.225" y2="286.05"/>
<line stroke-width="2" x1="27.825" y1="62.95" x2="87.725" y2="62.95"/>
<line stroke-width="5" x1="69.125" y1="199.35" x2="69.125" y2="286.05"/>
<polyline stroke-width="5" points="69.125,286.05 
	1.025,286.05 1.025,199.35 "/>
<polyline stroke-width="5" points="1.025,199.35 
	1.025,62.95 27.825,62.95 "/>
<line stroke-width="5" x1="174.325" y1="286.05" x2="179.325" y2="286.05"/>
<line stroke-width="5" x1="174.325" y1="263.35" x2="174.325" y2="286.05"/>
<line stroke-width="5" x1="1.025" y1="199.35" x2="32.025" y2="199.35"/>
<line stroke-width="5" x1="112.425" y1="199.35" x2="114.525" y2="199.35"/>
<line stroke-width="5" x1="114.525" y1="286.05" x2="174.325" y2="286.05"/>
<line stroke-width="5" x1="114.525" y1="199.35" x2="114.525" y2="286.05"/>
<line stroke-width="5" x1="230.125" y1="281.85" x2="230.125" y2="286.05"/>
<line stroke-width="5" x1="254.825" y1="250.95" x2="254.825" y2="253.05"/>
<line stroke-width="5" x1="254.825" y1="253.05" x2="230.125" y2="253.05"/>
<line stroke-width="5" x1="254.825" y1="286.05" x2="230.125" y2="286.05"/>
<line stroke-width="5" x1="254.825" y1="253.05" x2="254.825" y2="286.05"/>
<line stroke-width="5" x1="74.325" y1="199.35" x2="69.125" y2="199.35"/>
<polyline stroke-width="5" points="
	355.625,269.55 355.625,286.05 325.025,286.05 "/>
<line stroke-width="5" x1="322.925" y1="213.85" x2="355.625" y2="213.85"/>
<line stroke-width="5" x1="355.625" y1="213.85" x2="355.625" y2="269.55"/>
<line stroke-width="5" x1="325.025" y1="189.05" x2="322.925" y2="189.05"/>
<line stroke-width="5" x1="350.825" y1="189.05" x2="355.925" y2="189.05"/>
<line stroke-width="5" x1="322.925" y1="189.05" x2="316.825" y2="189.05"/>
<line stroke-width="5" x1="254.825" y1="184.95" x2="254.825" y2="189.05"/>
<line stroke-width="5" x1="263.125" y1="189.05" x2="254.825" y2="189.05"/>
<polyline stroke-width="5" points="
	254.825,189.05 254.825,213.85 322.925,213.85 "/>
<line stroke-width="5" x1="355.925" y1="189.05" x2="355.625" y2="213.85"/>
<line stroke-width="5" x1="254.825" y1="286.05" x2="325.025" y2="286.05"/>
<line stroke-width="5" x1="322.925" y1="213.85" x2="322.925" y2="189.05"/>
<polyline stroke-width="5" points="254.725,48.75 
	248.725,48.75 248.725,3.35 118.625,3.35 118.625,63.35 "/>
<line stroke-width="5" x1="238.325" y1="63.15" x2="254.725" y2="63.15"/>
<line stroke-width="5" x1="254.725" y1="63.15" x2="254.725" y2="48.75"/>
<line stroke-width="5" x1="254.725" y1="48.75" x2="282.725" y2="48.75"/>
<polyline stroke-width="5" points="
	355.925,189.05 355.925,48.75 325.025,48.75 "/>
<polyline stroke-width="5" points="
	325.025,286.05 325.025,269.55 355.625,269.55 "/>
<line stroke-width="5" x1="114.525" y1="69.45" x2="114.525" y2="63.35"/>
<line stroke-width="5" x1="118.625" y1="63.35" x2="114.525" y2="63.35"/>
<line stroke-width="5" x1="118.625" y1="63.35" x2="135.125" y2="63.25"/>
<line stroke-width="5" x1="205.325" y1="63.15" x2="197.125" y2="63.25"/>
<line stroke-width="5" x1="67.025" y1="199.35" x2="69.125" y2="199.35"/>
<line stroke-width="5" x1="230.125" y1="286.05" x2="210.225" y2="286.05"/>
<line stroke-width="5" x1="254.725" y1="147.85" x2="254.725" y2="63.15"/>
<line stroke-width="5" x1="114.525" y1="102.45" x2="114.525" y2="199.35"/>
<line stroke-width="5" x1="69.125" y1="286.05" x2="114.525" y2="286.05"/>
<line stroke-width="5" x1="114.525" y1="63.35" x2="87.725" y2="62.95"/>
<line stroke-width="2" x1="330.125" y1="574.25" x2="268.125" y2="574.25"/>
<line stroke-width="2" x1="458.125" y1="588.75" x2="415.825" y2="588.75"/>
<line stroke-width="2" x1="312.325" y1="351.45" x2="343.325" y2="351.45"/>
<line stroke-width="2" x1="160.825" y1="574.45" x2="220.725" y2="574.45"/>
<line stroke-width="5" x1="202.225" y1="438.15" x2="202.225" y2="351.45"/>
<polyline stroke-width="5" points="
	202.225,351.45 134.025,351.45 134.025,438.15 "/>
<polyline stroke-width="5" points="
	134.025,438.15 134.025,574.45 160.825,574.45 "/>
<line stroke-width="5" x1="307.425" y1="351.45" x2="312.325" y2="351.45"/>
<line stroke-width="5" x1="307.425" y1="374.15" x2="307.425" y2="351.45"/>
<line stroke-width="5" x1="134.025" y1="438.15" x2="165.025" y2="438.15"/>
<line stroke-width="5" x1="245.425" y1="438.15" x2="247.625" y2="438.15"/>
<line stroke-width="5" x1="247.625" y1="351.45" x2="307.425" y2="351.45"/>
<line stroke-width="5" x1="247.625" y1="438.15" x2="247.625" y2="351.45"/>
<line stroke-width="5" x1="363.125" y1="355.549" x2="363.125" y2="351.45"/>
<line stroke-width="5" x1="387.925" y1="386.549" x2="387.925" y2="384.45"/>
<line stroke-width="5" x1="387.925" y1="384.45" x2="363.125" y2="384.45"/>
<line stroke-width="5" x1="387.925" y1="351.45" x2="363.125" y2="351.45"/>
<line stroke-width="5" x1="387.925" y1="384.45" x2="387.925" y2="351.45"/>
<line stroke-width="5" x1="207.325" y1="438.15" x2="202.225" y2="438.15"/>
<polyline stroke-width="5" points="
	488.725,367.95 488.725,351.45 458.125,351.45 "/>
<line stroke-width="5" x1="456.025" y1="423.65" x2="488.725" y2="423.65"/>
<line stroke-width="5" x1="488.725" y1="423.65" x2="488.725" y2="367.95"/>
<line stroke-width="5" x1="458.125" y1="448.45" x2="456.025" y2="448.45"/>
<line stroke-width="5" x1="483.925" y1="448.45" x2="489.025" y2="448.45"/>
<line stroke-width="5" x1="456.025" y1="448.45" x2="449.825" y2="448.45"/>
<line stroke-width="5" x1="387.925" y1="452.549" x2="387.925" y2="448.45"/>
<line stroke-width="5" x1="396.125" y1="448.45" x2="387.925" y2="448.45"/>
<polyline stroke-width="5" points="
	387.925,448.45 387.925,423.65 456.025,423.65 "/>
<line stroke-width="5" x1="489.025" y1="448.45" x2="488.725" y2="423.65"/>
<line stroke-width="5" x1="387.925" y1="351.45" x2="458.125" y2="351.45"/>
<line stroke-width="5" x1="456.025" y1="423.65" x2="456.025" y2="448.45"/>
<polyline stroke-width="5" points="
	387.825,588.75 381.725,588.75 381.725,634.15 251.725,634.15 251.725,574.15 "/>
<line stroke-width="5" x1="371.425" y1="574.25" x2="387.825" y2="574.25"/>
<line stroke-width="5" x1="387.825" y1="574.25" x2="387.825" y2="588.75"/>
<line stroke-width="5" x1="387.825" y1="588.75" x2="415.825" y2="588.75"/>
<polyline stroke-width="5" points="
	489.025,448.45 489.025,588.75 458.125,588.75 "/>
<polyline stroke-width="5" points="
	458.125,351.45 458.125,367.95 488.725,367.95 "/>
<line stroke-width="5" x1="247.625" y1="568.15" x2="247.625" y2="574.15"/>
<line stroke-width="5" x1="251.725" y1="574.15" x2="247.625" y2="574.15"/>
<line stroke-width="5" x1="251.725" y1="574.15" x2="268.125" y2="574.25"/>
<line stroke-width="5" x1="338.425" y1="574.25" x2="330.125" y2="574.25"/>
<line stroke-width="5" x1="200.125" y1="438.15" x2="202.225" y2="438.15"/>
<line stroke-width="5" x1="363.125" y1="351.45" x2="343.325" y2="351.45"/>
<line stroke-width="5" x1="387.825" y1="489.65" x2="387.825" y2="574.25"/>
<line stroke-width="5" x1="247.625" y1="535.15" x2="247.625" y2="438.15"/>
<line stroke-width="5" x1="202.225" y1="351.45" x2="247.625" y2="351.45"/>
<line stroke-width="5" x1="247.625" y1="574.15" x2="220.725" y2="574.45"/>
<line stroke-width="2" x1="526.725" y1="63.45" x2="584.125" y2="63.45"/>
<line stroke-width="2" x1="436.025" y1="63.45" x2="397.525" y2="63.45"/>
<line stroke-width="2" x1="502.825" y1="286.05" x2="538.225" y2="286.05"/>
<polyline stroke-width="5" points="540.325,286.05 
	602.025,286.05 602.025,63.45 "/>
<line stroke-width="5" x1="485.925" y1="283.15" x2="485.925" y2="286.05"/>
<line stroke-width="5" x1="461.325" y1="252.05" x2="461.325" y2="254.05"/>
<line stroke-width="5" x1="461.325" y1="254.05" x2="461.325" y2="286.05"/>
<line stroke-width="5" x1="461.325" y1="254.05" x2="486.225" y2="254.05"/>
<line stroke-width="5" x1="461.325" y1="286.05" x2="485.925" y2="286.05"/>
<polyline stroke-width="5" points="390.625,286.05 
	390.625,270.65 361.025,270.65 "/>
<polyline stroke-width="5" points="361.025,270.65 
	361.025,286.05 390.625,286.05 "/>
<line stroke-width="5" x1="361.025" y1="212.55" x2="361.025" y2="270.65"/>
<line stroke-width="5" x1="408.625" y1="212.55" x2="361.025" y2="212.55"/>
<line stroke-width="5" x1="540.325" y1="286.05" x2="540.325" y2="264.55"/>
<line stroke-width="5" x1="413.425" y1="187.55" x2="408.625" y2="187.55"/>
<line stroke-width="5" x1="361.025" y1="187.55" x2="365.625" y2="187.55"/>
<line stroke-width="5" x1="471.625" y1="185.45" x2="471.625" y2="187.55"/>
<line stroke-width="5" x1="471.625" y1="187.55" x2="467.425" y2="187.55"/>
<polyline stroke-width="5" points="471.625,187.55 
	471.625,212.55 408.625,212.55 "/>
<line stroke-width="5" x1="408.625" y1="187.55" x2="408.625" y2="212.55"/>
<line stroke-width="5" x1="461.325" y1="286.05" x2="390.625" y2="286.05"/>
<line stroke-width="5" x1="361.025" y1="212.55" x2="361.025" y2="187.55"/>
<line stroke-width="5" x1="484.125" y1="63.45" x2="471.625" y2="63.45"/>
<line stroke-width="5" x1="471.625" y1="63.45" x2="436.025" y2="63.45"/>
<polyline stroke-width="5" points="397.525,63.45 
	361.025,63.45 361.025,187.55 "/>
<line stroke-width="5" x1="405.125" y1="187.55" x2="408.625" y2="187.55"/>
<polyline stroke-width="5" points="602.025,63.45 
	602.025,1.05 471.625,1.05 471.625,63.45 "/>
<line stroke-width="5" x1="602.025" y1="63.45" x2="584.125" y2="63.45"/>
<line stroke-width="5" x1="516.625" y1="63.45" x2="526.725" y2="63.45"/>
<line stroke-width="5" x1="538.225" y1="286.05" x2="540.325" y2="286.05"/>
<line stroke-width="5" x1="485.925" y1="286.05" x2="502.825" y2="286.05"/>
<line stroke-width="5" x1="471.625" y1="150.05" x2="471.625" y2="63.45"/>
<line stroke-width="2" x1="774.025" y1="63.45" x2="831.425" y2="63.45"/>
<line stroke-width="2" x1="683.325" y1="63.45" x2="644.825" y2="63.45"/>
<line stroke-width="2" x1="750.125" y1="286.05" x2="785.525" y2="286.05"/>
<polyline stroke-width="5" points="787.525,286.05 
	849.325,286.05 849.325,63.45 "/>
<line stroke-width="5" x1="733.225" y1="283.15" x2="733.225" y2="286.05"/>
<line stroke-width="5" x1="708.525" y1="252.05" x2="708.525" y2="254.05"/>
<line stroke-width="5" x1="708.525" y1="254.05" x2="708.525" y2="286.05"/>
<line stroke-width="5" x1="708.525" y1="254.05" x2="733.525" y2="254.05"/>
<line stroke-width="5" x1="708.525" y1="286.05" x2="733.225" y2="286.05"/>
<polyline stroke-width="5" points="637.925,286.05 
	637.925,270.65 608.325,270.65 "/>
<polyline stroke-width="5" points="608.325,270.65 
	608.325,286.05 637.925,286.05 "/>
<line stroke-width="5" x1="608.325" y1="212.55" x2="608.325" y2="270.65"/>
<line stroke-width="5" x1="655.925" y1="212.55" x2="608.325" y2="212.55"/>
<line stroke-width="5" x1="787.525" y1="286.05" x2="787.525" y2="264.55"/>
<line stroke-width="5" x1="660.725" y1="187.55" x2="655.925" y2="187.55"/>
<line stroke-width="5" x1="608.325" y1="187.55" x2="612.925" y2="187.55"/>
<line stroke-width="5" x1="719.025" y1="185.45" x2="719.025" y2="187.55"/>
<line stroke-width="5" x1="719.025" y1="187.55" x2="714.825" y2="187.55"/>
<polyline stroke-width="5" points="719.025,187.55 
	719.025,212.55 655.925,212.55 "/>
<line stroke-width="5" x1="655.925" y1="187.55" x2="655.925" y2="212.55"/>
<line stroke-width="5" x1="708.525" y1="286.05" x2="637.925" y2="286.05"/>
<line stroke-width="5" x1="608.325" y1="212.55" x2="608.325" y2="187.55"/>
<line stroke-width="5" x1="731.425" y1="63.45" x2="719.025" y2="63.45"/>
<line stroke-width="5" x1="719.025" y1="63.45" x2="683.325" y2="63.45"/>
<polyline stroke-width="5" points="644.825,63.45 
	608.325,63.45 608.325,187.55 "/>
<line stroke-width="5" x1="652.425" y1="187.55" x2="655.925" y2="187.55"/>
<polyline stroke-width="5" points="849.325,63.45 
	849.325,1.05 719.025,1.05 719.025,63.45 "/>
<line stroke-width="5" x1="849.325" y1="63.45" x2="831.425" y2="63.45"/>
<line stroke-width="5" x1="764.025" y1="63.45" x2="774.025" y2="63.45"/>
<line stroke-width="5" x1="785.525" y1="286.05" x2="787.525" y2="286.05"/>
<line stroke-width="5" x1="733.225" y1="286.05" x2="750.125" y2="286.05"/>
<line stroke-width="5" x1="719.025" y1="150.05" x2="719.025" y2="63.45"/>
<line stroke-width="2" x1="928.525" y1="63.45" x2="871.125" y2="63.45"/>
<line stroke-width="2" x1="1019.325" y1="63.45" x2="1057.825" y2="63.45"/>
<line stroke-width="2" x1="952.525" y1="286.05" x2="917.025" y2="286.05"/>
<polyline stroke-width="5" points="915.025,286.05 
	853.325,286.05 853.325,63.45 "/>
<line stroke-width="5" x1="969.425" y1="283.15" x2="969.425" y2="286.05"/>
<line stroke-width="5" x1="994.025" y1="252.05" x2="994.025" y2="254.05"/>
<line stroke-width="5" x1="994.025" y1="254.05" x2="994.025" y2="286.05"/>
<line stroke-width="5" x1="994.025" y1="254.05" x2="969.025" y2="254.05"/>
<line stroke-width="5" x1="994.025" y1="286.05" x2="969.425" y2="286.05"/>
<polyline stroke-width="5" points="
	1064.725,286.05 1064.725,270.65 1094.325,270.65 "/>
<polyline stroke-width="5" points="
	1094.325,270.65 1094.325,286.05 1064.725,286.05 "/>
<line stroke-width="5" x1="1094.325" y1="212.55" x2="1094.325" y2="270.65"/>
<line stroke-width="5" x1="1046.725" y1="212.55" x2="1094.325" y2="212.55"/>
<line stroke-width="5" x1="915.025" y1="286.05" x2="915.025" y2="264.55"/>
<line stroke-width="5" x1="1041.825" y1="187.55" x2="1046.725" y2="187.55"/>
<line stroke-width="5" x1="1094.325" y1="187.55" x2="1089.725" y2="187.55"/>
<line stroke-width="5" x1="983.625" y1="185.45" x2="983.625" y2="187.55"/>
<line stroke-width="5" x1="983.625" y1="187.55" x2="987.825" y2="187.55"/>
<polyline stroke-width="5" points="983.625,187.55 
	983.625,212.55 1046.725,212.55 "/>
<line stroke-width="5" x1="1046.725" y1="187.55" x2="1046.725" y2="212.55"/>
<line stroke-width="5" x1="994.025" y1="286.05" x2="1064.725" y2="286.05"/>
<line stroke-width="5" x1="1094.325" y1="212.55" x2="1094.325" y2="187.55"/>
<line stroke-width="5" x1="971.125" y1="63.45" x2="983.625" y2="63.45"/>
<line stroke-width="5" x1="983.625" y1="63.45" x2="1019.325" y2="63.45"/>
<polyline stroke-width="5" points="1057.825,63.45 
	1094.325,63.45 1094.325,187.55 "/>
<line stroke-width="5" x1="1050.225" y1="187.55" x2="1046.725" y2="187.55"/>
<polyline stroke-width="5" points="853.325,63.45 
	853.325,1.05 983.625,1.05 983.625,63.45 "/>
<line stroke-width="5" x1="853.325" y1="63.45" x2="871.125" y2="63.45"/>
<line stroke-width="5" x1="938.625" y1="63.45" x2="928.525" y2="63.45"/>
<line stroke-width="5" x1="917.025" y1="286.05" x2="915.025" y2="286.05"/>
<line stroke-width="5" x1="969.425" y1="286.05" x2="952.525" y2="286.05"/>
<line stroke-width="5" x1="983.625" y1="150.05" x2="983.625" y2="63.45"/>
<line stroke-width="2" x1="660.525" y1="573.95" x2="717.925" y2="573.95"/>
<line stroke-width="2" x1="569.825" y1="573.95" x2="531.325" y2="573.95"/>
<line stroke-width="2" x1="636.625" y1="351.45" x2="672.025" y2="351.45"/>
<polyline stroke-width="5" points="674.025,351.45 
	735.825,351.45 735.825,573.95 "/>
<line stroke-width="5" x1="619.725" y1="354.35" x2="619.725" y2="351.45"/>
<line stroke-width="5" x1="595.025" y1="385.549" x2="595.025" y2="383.35"/>
<line stroke-width="5" x1="595.025" y1="383.35" x2="595.025" y2="351.45"/>
<line stroke-width="5" x1="595.025" y1="383.35" x2="620.025" y2="383.35"/>
<line stroke-width="5" x1="595.025" y1="351.45" x2="619.725" y2="351.45"/>
<polyline stroke-width="5" points="524.425,351.45 
	524.425,366.85 494.825,366.85 "/>
<polyline stroke-width="5" points="494.825,366.85 
	494.825,351.45 524.425,351.45 "/>
<line stroke-width="5" x1="494.825" y1="425.049" x2="494.825" y2="366.85"/>
<line stroke-width="5" x1="542.425" y1="425.049" x2="494.825" y2="425.049"/>
<line stroke-width="5" x1="674.025" y1="351.45" x2="674.025" y2="373.049"/>
<line stroke-width="5" x1="547.225" y1="449.95" x2="542.425" y2="449.95"/>
<line stroke-width="5" x1="494.825" y1="449.95" x2="499.425" y2="449.95"/>
<line stroke-width="5" x1="605.525" y1="452.049" x2="605.525" y2="449.95"/>
<line stroke-width="5" x1="605.525" y1="449.95" x2="601.325" y2="449.95"/>
<polyline stroke-width="5" points="605.525,449.95 
	605.525,425.049 542.425,425.049 "/>
<line stroke-width="5" x1="542.425" y1="449.95" x2="542.425" y2="425.049"/>
<line stroke-width="5" x1="595.025" y1="351.45" x2="524.425" y2="351.45"/>
<line stroke-width="5" x1="494.825" y1="425.049" x2="494.825" y2="449.95"/>
<line stroke-width="5" x1="617.925" y1="573.95" x2="605.525" y2="573.95"/>
<line stroke-width="5" x1="605.525" y1="573.95" x2="569.825" y2="573.95"/>
<polyline stroke-width="5" points="531.325,573.95 
	494.825,573.95 494.825,449.95 "/>
<line stroke-width="5" x1="538.925" y1="449.95" x2="542.425" y2="449.95"/>
<polyline stroke-width="5" points="735.825,573.95 
	735.825,636.45 605.525,636.45 605.525,573.95 "/>
<line stroke-width="5" x1="735.825" y1="573.95" x2="717.925" y2="573.95"/>
<line stroke-width="5" x1="650.525" y1="573.95" x2="660.525" y2="573.95"/>
<line stroke-width="5" x1="672.025" y1="351.45" x2="674.025" y2="351.45"/>
<line stroke-width="5" x1="619.725" y1="351.45" x2="636.625" y2="351.45"/>
<line stroke-width="5" x1="605.525" y1="487.35" x2="605.525" y2="573.95"/>
<line stroke-width="2" x1="816.025" y1="573.95" x2="758.625" y2="573.95"/>
<line stroke-width="2" x1="906.825" y1="573.95" x2="945.325" y2="573.95"/>
<line stroke-width="2" x1="840.025" y1="351.45" x2="804.525" y2="351.45"/>
<polyline stroke-width="5" points="802.525,351.45 
	740.825,351.45 740.825,573.95 "/>
<line stroke-width="5" x1="856.925" y1="354.35" x2="856.925" y2="351.45"/>
<line stroke-width="5" x1="881.525" y1="385.549" x2="881.525" y2="383.35"/>
<line stroke-width="5" x1="881.525" y1="383.35" x2="881.525" y2="351.45"/>
<line stroke-width="5" x1="881.525" y1="383.35" x2="856.525" y2="383.35"/>
<line stroke-width="5" x1="881.525" y1="351.45" x2="856.925" y2="351.45"/>
<polyline stroke-width="5" points="952.225,351.45 
	952.225,366.85 981.825,366.85 "/>
<polyline stroke-width="5" points="981.825,366.85 
	981.825,351.45 952.225,351.45 "/>
<line stroke-width="5" x1="981.825" y1="425.049" x2="981.825" y2="366.85"/>
<line stroke-width="5" x1="934.225" y1="425.049" x2="981.825" y2="425.049"/>
<line stroke-width="5" x1="802.525" y1="351.45" x2="802.525" y2="373.049"/>
<line stroke-width="5" x1="929.425" y1="449.95" x2="934.225" y2="449.95"/>
<line stroke-width="5" x1="981.825" y1="449.95" x2="977.225" y2="449.95"/>
<line stroke-width="5" x1="871.125" y1="452.049" x2="871.125" y2="449.95"/>
<line stroke-width="5" x1="871.125" y1="449.95" x2="875.325" y2="449.95"/>
<polyline stroke-width="5" points="871.125,449.95 
	871.125,425.049 934.225,425.049 "/>
<line stroke-width="5" x1="934.225" y1="449.95" x2="934.225" y2="425.049"/>
<line stroke-width="5" x1="881.525" y1="351.45" x2="952.225" y2="351.45"/>
<line stroke-width="5" x1="981.825" y1="425.049" x2="981.825" y2="449.95"/>
<line stroke-width="5" x1="858.625" y1="573.95" x2="871.125" y2="573.95"/>
<line stroke-width="5" x1="871.125" y1="573.95" x2="906.825" y2="573.95"/>
<polyline stroke-width="5" points="945.325,573.95 
	981.825,573.95 981.825,449.95 "/>
<line stroke-width="5" x1="937.625" y1="449.95" x2="934.225" y2="449.95"/>
<polyline stroke-width="5" points="740.825,573.95 
	740.825,636.45 871.125,636.45 871.125,573.95 "/>
<line stroke-width="5" x1="740.825" y1="573.95" x2="758.625" y2="573.95"/>
<line stroke-width="5" x1="826.125" y1="573.95" x2="816.025" y2="573.95"/>
<line stroke-width="5" x1="804.525" y1="351.45" x2="802.525" y2="351.45"/>
<line stroke-width="5" x1="856.925" y1="351.45" x2="840.025" y2="351.45"/>
<line stroke-width="5" x1="871.125" y1="487.35" x2="871.125" y2="573.95"/>
<line stroke-width="2" x1="1607.725" y1="63.45" x2="1550.325" y2="63.45"/>
<line stroke-width="2" x1="1698.325" y1="63.45" x2="1736.825" y2="63.45"/>
<line stroke-width="2" x1="1631.625" y1="286.05" x2="1596.225" y2="286.05"/>
<polyline stroke-width="5" points="
	1594.125,286.05 1532.425,286.05 1532.425,63.45 "/>
<line stroke-width="5" x1="1648.525" y1="283.15" x2="1648.525" y2="286.05"/>
<line stroke-width="5" x1="1673.125" y1="252.05" x2="1673.125" y2="254.05"/>
<line stroke-width="5" x1="1673.125" y1="254.05" x2="1673.125" y2="286.05"/>
<line stroke-width="5" x1="1673.125" y1="254.05" x2="1648.225" y2="254.05"/>
<line stroke-width="5" x1="1673.125" y1="286.05" x2="1648.525" y2="286.05"/>
<polyline stroke-width="5" points="
	1743.825,286.05 1743.825,270.65 1773.325,270.65 "/>
<polyline stroke-width="5" points="
	1773.325,270.65 1773.325,286.05 1743.825,286.05 "/>
<line stroke-width="5" x1="1773.325" y1="212.55" x2="1773.325" y2="270.65"/>
<line stroke-width="5" x1="1725.825" y1="212.55" x2="1773.325" y2="212.55"/>
<line stroke-width="5" x1="1594.125" y1="286.05" x2="1594.125" y2="264.55"/>
<line stroke-width="5" x1="1721.025" y1="187.55" x2="1725.825" y2="187.55"/>
<line stroke-width="5" x1="1773.325" y1="187.55" x2="1768.825" y2="187.55"/>
<line stroke-width="5" x1="1662.725" y1="185.45" x2="1662.725" y2="187.55"/>
<line stroke-width="5" x1="1662.725" y1="187.55" x2="1666.925" y2="187.55"/>
<polyline stroke-width="5" points="
	1662.725,187.55 1662.725,212.55 1725.825,212.55 "/>
<line stroke-width="5" x1="1725.825" y1="187.55" x2="1725.825" y2="212.55"/>
<line stroke-width="5" x1="1673.125" y1="286.05" x2="1743.825" y2="286.05"/>
<line stroke-width="5" x1="1773.325" y1="212.55" x2="1773.325" y2="187.55"/>
<line stroke-width="5" x1="1650.325" y1="63.45" x2="1662.725" y2="63.45"/>
<line stroke-width="5" x1="1662.725" y1="63.45" x2="1698.325" y2="63.45"/>
<polyline stroke-width="5" points="1736.825,63.45 
	1773.325,63.45 1773.325,187.55 "/>
<line stroke-width="5" x1="1729.325" y1="187.55" x2="1725.825" y2="187.55"/>
<polyline stroke-width="5" points="1532.425,63.45 
	1532.425,1.05 1662.725,1.05 1662.725,63.45 "/>
<line stroke-width="5" x1="1532.425" y1="63.45" x2="1550.325" y2="63.45"/>
<line stroke-width="5" x1="1617.725" y1="63.45" x2="1607.725" y2="63.45"/>
<line stroke-width="5" x1="1596.225" y1="286.05" x2="1594.125" y2="286.05"/>
<line stroke-width="5" x1="1648.525" y1="286.05" x2="1631.625" y2="286.05"/>
<line stroke-width="5" x1="1662.725" y1="150.05" x2="1662.725" y2="63.45"/>
<line stroke-width="2" x1="1559.525" y1="573.15" x2="1619.725" y2="573.15"/>
<line stroke-width="2" x1="1856.325" y1="589.75" x2="1814.825" y2="589.75"/>
<line stroke-width="2" x1="1727.725" y1="573.15" x2="1667.525" y2="573.15"/>
<line stroke-width="2" x1="1758.825" y1="353.049" x2="1793.325" y2="353.049"/>
<line stroke-width="5" x1="1601.025" y1="438.15" x2="1601.025" y2="353.049"/>
<polyline stroke-width="5" points="
	1532.525,438.15 1532.525,573.15 1559.525,573.15 "/>
<polyline stroke-width="5" points="
	1731.825,353.049 1731.825,388.35 1756.725,388.35 "/>
<line stroke-width="5" x1="1642.625" y1="452.75" x2="1642.625" y2="438.15"/>
<line stroke-width="5" x1="1640.525" y1="438.15" x2="1642.625" y2="438.15"/>
<line stroke-width="5" x1="1642.625" y1="438.15" x2="1642.625" y2="353.049"/>
<line stroke-width="5" x1="1642.625" y1="353.049" x2="1731.825" y2="353.049"/>
<line stroke-width="5" x1="1754.725" y1="353.049" x2="1758.825" y2="353.049"/>
<line stroke-width="5" x1="1754.725" y1="355.15" x2="1754.725" y2="353.049"/>
<line stroke-width="5" x1="1793.325" y1="353.049" x2="1798.325" y2="353.049"/>
<line stroke-width="5" x1="1798.325" y1="390.45" x2="1798.325" y2="353.049"/>
<polyline stroke-width="5" points="
	1601.025,353.049 1532.525,353.049 1532.525,438.15 "/>
<polyline stroke-width="5" points="
	1858.525,353.049 1858.525,367.65 1887.525,367.65 "/>
<polyline stroke-width="5" points="
	1858.525,353.049 1887.525,353.049 1887.525,367.65 "/>
<line stroke-width="5" x1="1854.325" y1="423.65" x2="1887.525" y2="423.65"/>
<line stroke-width="5" x1="1887.525" y1="367.65" x2="1887.525" y2="423.65"/>
<line stroke-width="5" x1="1532.525" y1="438.15" x2="1567.825" y2="438.15"/>
<line stroke-width="5" x1="1883.325" y1="448.65" x2="1887.525" y2="448.65"/>
<line stroke-width="5" x1="1854.325" y1="448.65" x2="1846.025" y2="448.65"/>
<line stroke-width="5" x1="1785.825" y1="450.65" x2="1785.825" y2="448.65"/>
<line stroke-width="5" x1="1792.025" y1="448.65" x2="1785.825" y2="448.65"/>
<line stroke-width="5" x1="1887.525" y1="423.65" x2="1887.525" y2="448.65"/>
<line stroke-width="5" x1="1798.325" y1="353.049" x2="1858.525" y2="353.049"/>
<polyline stroke-width="5" points="
	1785.825,448.65 1785.825,423.65 1854.325,423.65 "/>
<line stroke-width="5" x1="1854.325" y1="423.65" x2="1854.325" y2="448.65"/>
<polyline stroke-width="5" points="
	1785.825,589.75 1781.725,589.75 1781.725,635.45 1650.825,635.45 1650.825,573.15 "/>
<line stroke-width="5" x1="1785.825" y1="573.15" x2="1785.825" y2="589.75"/>
<line stroke-width="5" x1="1765.025" y1="573.15" x2="1785.825" y2="573.15"/>
<line stroke-width="5" x1="1814.825" y1="589.75" x2="1785.825" y2="589.75"/>
<polyline stroke-width="5" points="
	1887.525,448.65 1887.525,589.75 1856.325,589.75 "/>
<line stroke-width="5" x1="1605.225" y1="438.15" x2="1601.025" y2="438.15"/>
<line stroke-width="5" x1="1650.825" y1="573.15" x2="1642.625" y2="573.15"/>
<line stroke-width="5" x1="1642.625" y1="573.15" x2="1619.725" y2="573.15"/>
<line stroke-width="5" x1="1650.825" y1="573.15" x2="1667.525" y2="573.15"/>
<line stroke-width="5" x1="1736.025" y1="573.15" x2="1727.725" y2="573.15"/>
<line stroke-width="5" x1="1856.325" y1="448.65" x2="1854.325" y2="448.65"/>
<line stroke-width="5" x1="1785.825" y1="481.75" x2="1785.825" y2="573.15"/>
<line stroke-width="5" x1="1642.625" y1="481.75" x2="1642.625" y2="573.15"/>
<line stroke-width="5" x1="1754.725" y1="353.049" x2="1731.825" y2="353.049"/>
<line stroke-width="5" x1="1642.625" y1="353.049" x2="1601.025" y2="353.049"/>
<line stroke-width="5" x1="1599.025" y1="438.15" x2="1601.025" y2="438.15"/>
<line stroke-width="2" x1="2712.625" y1="573.15" x2="2652.425" y2="573.15"/>
<line stroke-width="2" x1="2415.825" y1="589.75" x2="2457.325" y2="589.75"/>
<line stroke-width="2" x1="2544.425" y1="573.15" x2="2604.725" y2="573.15"/>
<line stroke-width="2" x1="2513.325" y1="353.049" x2="2478.825" y2="353.049"/>
<line stroke-width="5" x1="2671.125" y1="438.15" x2="2671.125" y2="353.049"/>
<polyline stroke-width="5" points="
	2739.625,438.15 2739.625,573.15 2712.625,573.15 "/>
<polyline stroke-width="5" points="
	2540.325,353.049 2540.325,388.35 2515.425,388.35 "/>
<line stroke-width="5" x1="2629.625" y1="452.75" x2="2629.625" y2="438.15"/>
<line stroke-width="5" x1="2631.725" y1="438.15" x2="2629.625" y2="438.15"/>
<line stroke-width="5" x1="2629.625" y1="438.15" x2="2629.625" y2="353.049"/>
<line stroke-width="5" x1="2629.625" y1="353.049" x2="2540.325" y2="353.049"/>
<line stroke-width="5" x1="2517.425" y1="353.049" x2="2513.325" y2="353.049"/>
<line stroke-width="5" x1="2517.425" y1="355.15" x2="2517.425" y2="353.049"/>
<line stroke-width="5" x1="2478.825" y1="353.049" x2="2473.825" y2="353.049"/>
<line stroke-width="5" x1="2473.825" y1="390.45" x2="2473.825" y2="353.049"/>
<polyline stroke-width="5" points="
	2671.125,353.049 2739.625,353.049 2739.625,438.15 "/>
<polyline stroke-width="5" points="
	2413.725,353.049 2413.725,367.65 2384.625,367.65 "/>
<polyline stroke-width="5" points="
	2413.725,353.049 2384.625,353.049 2384.625,367.65 "/>
<line stroke-width="5" x1="2417.825" y1="423.65" x2="2384.625" y2="423.65"/>
<line stroke-width="5" x1="2384.625" y1="367.65" x2="2384.625" y2="423.65"/>
<line stroke-width="5" x1="2739.625" y1="438.15" x2="2704.325" y2="438.15"/>
<line stroke-width="5" x1="2388.825" y1="448.65" x2="2384.625" y2="448.65"/>
<line stroke-width="5" x1="2417.825" y1="448.65" x2="2426.125" y2="448.65"/>
<line stroke-width="5" x1="2486.325" y1="450.65" x2="2486.325" y2="448.65"/>
<line stroke-width="5" x1="2480.125" y1="448.65" x2="2486.325" y2="448.65"/>
<line stroke-width="5" x1="2384.625" y1="423.65" x2="2384.625" y2="448.65"/>
<line stroke-width="5" x1="2473.825" y1="353.049" x2="2413.725" y2="353.049"/>
<polyline stroke-width="5" points="
	2486.325,448.65 2486.325,423.65 2417.825,423.65 "/>
<line stroke-width="5" x1="2417.825" y1="423.65" x2="2417.825" y2="448.65"/>
<polyline stroke-width="5" points="
	2486.325,589.75 2490.425,589.75 2490.425,635.45 2621.325,635.45 2621.325,573.15 "/>
<line stroke-width="5" x1="2486.325" y1="573.15" x2="2486.325" y2="589.75"/>
<line stroke-width="5" x1="2507.125" y1="573.15" x2="2486.325" y2="573.15"/>
<line stroke-width="5" x1="2457.325" y1="589.75" x2="2486.325" y2="589.75"/>
<polyline stroke-width="5" points="
	2384.625,448.65 2384.625,589.75 2415.825,589.75 "/>
<line stroke-width="5" x1="2666.925" y1="438.15" x2="2671.125" y2="438.15"/>
<line stroke-width="5" x1="2621.325" y1="573.15" x2="2629.625" y2="573.15"/>
<line stroke-width="5" x1="2629.625" y1="573.15" x2="2652.425" y2="573.15"/>
<line stroke-width="5" x1="2621.325" y1="573.15" x2="2604.725" y2="573.15"/>
<line stroke-width="5" x1="2536.225" y1="573.15" x2="2544.425" y2="573.15"/>
<line stroke-width="5" x1="2415.825" y1="448.65" x2="2417.825" y2="448.65"/>
<line stroke-width="5" x1="2486.325" y1="481.75" x2="2486.325" y2="573.15"/>
<line stroke-width="5" x1="2629.625" y1="481.75" x2="2629.625" y2="573.15"/>
<line stroke-width="5" x1="2517.425" y1="353.049" x2="2540.325" y2="353.049"/>
<line stroke-width="5" x1="2629.625" y1="353.049" x2="2671.125" y2="353.049"/>
<line stroke-width="5" x1="2673.225" y1="438.15" x2="2671.125" y2="438.15"/>
<line stroke-width="2" x1="2846.625" y1="65.35" x2="2786.425" y2="65.35"/>
<line stroke-width="2" x1="2549.825" y1="48.75" x2="2591.325" y2="48.75"/>
<line stroke-width="2" x1="2678.425" y1="65.35" x2="2738.725" y2="65.35"/>
<line stroke-width="2" x1="2647.325" y1="285.35" x2="2612.825" y2="285.35"/>
<line stroke-width="5" x1="2805.125" y1="200.35" x2="2805.125" y2="285.35"/>
<polyline stroke-width="5" points="
	2873.625,200.35 2873.625,65.35 2846.625,65.35 "/>
<polyline stroke-width="5" points="
	2674.325,285.35 2674.325,250.05 2649.425,250.05 "/>
<line stroke-width="5" x1="2763.625" y1="185.75" x2="2763.625" y2="200.35"/>
<line stroke-width="5" x1="2765.725" y1="200.35" x2="2763.625" y2="200.35"/>
<line stroke-width="5" x1="2763.625" y1="200.35" x2="2763.625" y2="285.35"/>
<line stroke-width="5" x1="2763.625" y1="285.35" x2="2674.325" y2="285.35"/>
<line stroke-width="5" x1="2651.425" y1="285.35" x2="2647.325" y2="285.35"/>
<line stroke-width="5" x1="2651.425" y1="283.35" x2="2651.425" y2="285.35"/>
<line stroke-width="5" x1="2612.825" y1="285.35" x2="2607.825" y2="285.35"/>
<line stroke-width="5" x1="2607.825" y1="248.05" x2="2607.825" y2="285.35"/>
<polyline stroke-width="5" points="
	2805.125,285.35 2873.625,285.35 2873.625,200.35 "/>
<polyline stroke-width="5" points="
	2547.725,285.35 2547.725,270.85 2518.625,270.85 "/>
<polyline stroke-width="5" points="
	2547.725,285.35 2518.625,285.35 2518.625,270.85 "/>
<line stroke-width="5" x1="2551.825" y1="214.85" x2="2518.625" y2="214.85"/>
<line stroke-width="5" x1="2518.625" y1="270.85" x2="2518.625" y2="214.85"/>
<line stroke-width="5" x1="2873.625" y1="200.35" x2="2838.325" y2="200.35"/>
<line stroke-width="5" x1="2522.825" y1="189.85" x2="2518.625" y2="189.85"/>
<line stroke-width="5" x1="2551.825" y1="189.85" x2="2560.125" y2="189.85"/>
<line stroke-width="5" x1="2620.325" y1="187.85" x2="2620.325" y2="189.85"/>
<line stroke-width="5" x1="2614.125" y1="189.85" x2="2620.325" y2="189.85"/>
<line stroke-width="5" x1="2518.625" y1="214.85" x2="2518.625" y2="189.85"/>
<line stroke-width="5" x1="2607.825" y1="285.35" x2="2547.725" y2="285.35"/>
<polyline stroke-width="5" points="
	2620.325,189.85 2620.325,214.85 2551.825,214.85 "/>
<line stroke-width="5" x1="2551.825" y1="214.85" x2="2551.825" y2="189.85"/>
<polyline stroke-width="5" points="2620.325,48.75 
	2624.425,48.75 2624.425,3.05 2755.325,3.05 2755.325,65.35 "/>
<line stroke-width="5" x1="2620.325" y1="65.35" x2="2620.325" y2="48.75"/>
<line stroke-width="5" x1="2641.125" y1="65.35" x2="2620.325" y2="65.35"/>
<line stroke-width="5" x1="2591.325" y1="48.75" x2="2620.325" y2="48.75"/>
<polyline stroke-width="5" points="
	2518.625,189.85 2518.625,48.75 2549.825,48.75 "/>
<line stroke-width="5" x1="2800.925" y1="200.35" x2="2805.125" y2="200.35"/>
<line stroke-width="5" x1="2755.325" y1="65.35" x2="2763.625" y2="65.35"/>
<line stroke-width="5" x1="2763.625" y1="65.35" x2="2786.425" y2="65.35"/>
<line stroke-width="5" x1="2755.325" y1="65.35" x2="2738.725" y2="65.35"/>
<line stroke-width="5" x1="2670.225" y1="65.35" x2="2678.425" y2="65.35"/>
<line stroke-width="5" x1="2549.825" y1="189.85" x2="2551.825" y2="189.85"/>
<line stroke-width="5" x1="2620.325" y1="156.65" x2="2620.325" y2="65.35"/>
<line stroke-width="5" x1="2763.625" y1="156.65" x2="2763.625" y2="65.35"/>
<line stroke-width="5" x1="2651.425" y1="285.35" x2="2674.325" y2="285.35"/>
<line stroke-width="5" x1="2763.625" y1="285.35" x2="2805.125" y2="285.35"/>
<line stroke-width="5" x1="2807.225" y1="200.35" x2="2805.125" y2="200.35"/>
<line stroke-width="2" x1="1944.625" y1="63.85" x2="2001.625" y2="63.85"/>
<line stroke-width="2" x1="1854.525" y1="63.85" x2="1816.325" y2="63.85"/>
<line stroke-width="2" x1="1904.325" y1="286.15" x2="1871.325" y2="286.25"/>
<line stroke-width="5" x1="1909.825" y1="286.15" x2="1904.325" y2="286.15"/>
<line stroke-width="5" x1="1871.325" y1="286.25" x2="1867.225" y2="286.15"/>
<line stroke-width="5" x1="1867.225" y1="249.05" x2="1867.225" y2="286.15"/>
<line stroke-width="5" x1="1909.825" y1="282.75" x2="1909.825" y2="286.15"/>
<polyline stroke-width="5" points="
	1807.325,286.15 1807.325,269.65 1778.325,269.65 "/>
<polyline stroke-width="5" points="
	1807.325,286.15 1778.325,286.15 1778.325,269.65 "/>
<line stroke-width="5" x1="1778.325" y1="269.65" x2="1778.325" y2="214.55"/>
<line stroke-width="5" x1="1827.225" y1="214.55" x2="1778.325" y2="214.55"/>
<line stroke-width="5" x1="1825.225" y1="189.85" x2="1827.225" y2="189.85"/>
<polyline stroke-width="5" points="
	1934.625,286.15 2019.325,286.15 2019.325,63.85 "/>
<line stroke-width="5" x1="1778.325" y1="189.85" x2="1783.825" y2="189.85"/>
<line stroke-width="5" x1="1891.325" y1="187.75" x2="1891.325" y2="189.85"/>
<line stroke-width="5" x1="1891.325" y1="189.85" x2="1885.125" y2="189.85"/>
<line stroke-width="5" x1="1778.325" y1="214.55" x2="1778.325" y2="189.85"/>
<line stroke-width="5" x1="1867.225" y1="286.15" x2="1807.325" y2="286.15"/>
<polyline stroke-width="5" points="
	1891.325,189.85 1891.325,214.55 1827.225,214.55 "/>
<line stroke-width="5" x1="1827.225" y1="189.85" x2="1827.225" y2="214.55"/>
<line stroke-width="5" x1="1907.825" y1="63.85" x2="1889.925" y2="63.85"/>
<line stroke-width="5" x1="1889.925" y1="63.85" x2="1854.525" y2="63.85"/>
<polyline stroke-width="5" points="
	1778.325,189.85 1778.325,63.85 1816.325,63.85 "/>
<line stroke-width="5" x1="1831.325" y1="189.85" x2="1827.225" y2="189.85"/>
<polyline stroke-width="5" points="
	2019.325,63.85 2019.325,1.85 1889.925,1.85 1889.925,63.85 "/>
<line stroke-width="5" x1="2019.325" y1="63.85" x2="2001.625" y2="63.85"/>
<line stroke-width="5" x1="1934.625" y1="63.85" x2="1944.625" y2="63.85"/>
<polyline stroke-width="5" points="
	1909.825,247.65 1934.625,247.65 1934.625,286.15 "/>
<line stroke-width="5" x1="1909.825" y1="286.15" x2="1934.625" y2="286.15"/>
<line stroke-width="5" x1="1889.925" y1="63.85" x2="1889.925" y2="154.05"/>
<line stroke-width="2" x1="2100.125" y1="63.85" x2="2043.125" y2="63.85"/>
<line stroke-width="2" x1="2190.225" y1="63.85" x2="2228.425" y2="63.85"/>
<line stroke-width="2" x1="2140.325" y1="286.15" x2="2173.325" y2="286.25"/>
<line stroke-width="5" x1="2134.825" y1="286.15" x2="2140.325" y2="286.15"/>
<line stroke-width="5" x1="2173.325" y1="286.25" x2="2177.525" y2="286.15"/>
<line stroke-width="5" x1="2177.525" y1="249.05" x2="2177.525" y2="286.15"/>
<line stroke-width="5" x1="2134.825" y1="282.75" x2="2134.825" y2="286.15"/>
<polyline stroke-width="5" points="
	2237.425,286.15 2237.425,269.65 2266.325,269.65 "/>
<polyline stroke-width="5" points="
	2237.425,286.15 2266.325,286.15 2266.325,269.65 "/>
<line stroke-width="5" x1="2266.325" y1="269.65" x2="2266.325" y2="214.55"/>
<line stroke-width="5" x1="2217.425" y1="214.55" x2="2266.325" y2="214.55"/>
<line stroke-width="5" x1="2219.525" y1="189.85" x2="2217.425" y2="189.85"/>
<polyline stroke-width="5" points="
	2110.125,286.15 2025.325,286.15 2025.325,63.85 "/>
<line stroke-width="5" x1="2266.325" y1="189.85" x2="2260.825" y2="189.85"/>
<line stroke-width="5" x1="2153.425" y1="187.75" x2="2153.425" y2="189.85"/>
<line stroke-width="5" x1="2153.425" y1="189.85" x2="2159.625" y2="189.85"/>
<line stroke-width="5" x1="2266.325" y1="214.55" x2="2266.325" y2="189.85"/>
<line stroke-width="5" x1="2177.525" y1="286.15" x2="2237.425" y2="286.15"/>
<polyline stroke-width="5" points="
	2153.425,189.85 2153.425,214.55 2217.425,214.55 "/>
<line stroke-width="5" x1="2217.425" y1="189.85" x2="2217.425" y2="214.55"/>
<line stroke-width="5" x1="2136.925" y1="63.85" x2="2154.825" y2="63.85"/>
<line stroke-width="5" x1="2154.825" y1="63.85" x2="2190.225" y2="63.85"/>
<polyline stroke-width="5" points="
	2266.325,189.85 2266.325,63.85 2228.425,63.85 "/>
<line stroke-width="5" x1="2213.325" y1="189.85" x2="2217.425" y2="189.85"/>
<polyline stroke-width="5" points="
	2025.325,63.85 2025.325,1.85 2154.825,1.85 2154.825,63.85 "/>
<line stroke-width="5" x1="2025.325" y1="63.85" x2="2043.125" y2="63.85"/>
<line stroke-width="5" x1="2110.125" y1="63.85" x2="2100.125" y2="63.85"/>
<polyline stroke-width="5" points="
	2134.825,247.65 2110.125,247.65 2110.125,286.15 "/>
<line stroke-width="5" x1="2134.825" y1="286.15" x2="2110.125" y2="286.15"/>
<line stroke-width="5" x1="2154.825" y1="63.85" x2="2154.825" y2="154.05"/>
<line stroke-width="2" x1="2348.225" y1="63.85" x2="2291.225" y2="63.85"/>
<line stroke-width="2" x1="2438.325" y1="63.85" x2="2476.525" y2="63.85"/>
<line stroke-width="2" x1="2388.425" y1="286.15" x2="2421.425" y2="286.25"/>
<line stroke-width="5" x1="2382.925" y1="286.15" x2="2388.425" y2="286.15"/>
<line stroke-width="5" x1="2421.425" y1="286.25" x2="2425.625" y2="286.15"/>
<line stroke-width="5" x1="2425.625" y1="249.05" x2="2425.625" y2="286.15"/>
<line stroke-width="5" x1="2382.925" y1="282.75" x2="2382.925" y2="286.15"/>
<polyline stroke-width="5" points="
	2485.525,286.15 2485.525,269.65 2514.425,269.65 "/>
<polyline stroke-width="5" points="
	2485.525,286.15 2514.425,286.15 2514.425,269.65 "/>
<line stroke-width="5" x1="2514.425" y1="269.65" x2="2514.425" y2="214.55"/>
<line stroke-width="5" x1="2465.625" y1="214.55" x2="2514.425" y2="214.55"/>
<line stroke-width="5" x1="2467.625" y1="189.85" x2="2465.625" y2="189.85"/>
<polyline stroke-width="5" points="
	2358.225,286.15 2273.425,286.15 2273.425,63.85 "/>
<line stroke-width="5" x1="2514.425" y1="189.85" x2="2508.925" y2="189.85"/>
<line stroke-width="5" x1="2401.525" y1="187.75" x2="2401.525" y2="189.85"/>
<line stroke-width="5" x1="2401.525" y1="189.85" x2="2407.725" y2="189.85"/>
<line stroke-width="5" x1="2514.425" y1="214.55" x2="2514.425" y2="189.85"/>
<line stroke-width="5" x1="2425.625" y1="286.15" x2="2485.525" y2="286.15"/>
<polyline stroke-width="5" points="
	2401.525,189.85 2401.525,214.55 2465.625,214.55 "/>
<line stroke-width="5" x1="2465.625" y1="189.85" x2="2465.625" y2="214.55"/>
<line stroke-width="5" x1="2385.025" y1="63.85" x2="2402.825" y2="63.85"/>
<line stroke-width="5" x1="2402.825" y1="63.85" x2="2438.325" y2="63.85"/>
<polyline stroke-width="5" points="
	2514.425,189.85 2514.425,63.85 2476.525,63.85 "/>
<line stroke-width="5" x1="2461.425" y1="189.85" x2="2465.625" y2="189.85"/>
<polyline stroke-width="5" points="
	2273.425,63.85 2273.425,1.85 2402.825,1.85 2402.825,63.85 "/>
<line stroke-width="5" x1="2273.425" y1="63.85" x2="2291.225" y2="63.85"/>
<line stroke-width="5" x1="2358.225" y1="63.85" x2="2348.225" y2="63.85"/>
<polyline stroke-width="5" points="
	2382.925,247.65 2358.225,247.65 2358.225,286.15 "/>
<line stroke-width="5" x1="2382.925" y1="286.15" x2="2358.225" y2="286.15"/>
<line stroke-width="5" x1="2402.825" y1="63.85" x2="2402.825" y2="154.05"/>
<line stroke-width="2" x1="2057.725" y1="575.549" x2="2114.725" y2="575.549"/>
<line stroke-width="2" x1="1967.625" y1="575.549" x2="1929.325" y2="575.549"/>
<line stroke-width="2" x1="2017.425" y1="353.15" x2="1984.325" y2="353.049"/>
<line stroke-width="5" x1="2022.925" y1="353.15" x2="2017.425" y2="353.15"/>
<line stroke-width="5" x1="1984.325" y1="353.049" x2="1980.225" y2="353.15"/>
<line stroke-width="5" x1="1980.225" y1="390.35" x2="1980.225" y2="353.15"/>
<line stroke-width="5" x1="2022.925" y1="356.549" x2="2022.925" y2="353.15"/>
<polyline stroke-width="5" points="
	1920.325,353.15 1920.325,369.65 1891.425,369.65 "/>
<polyline stroke-width="5" points="
	1920.325,353.15 1891.425,353.15 1891.425,369.65 "/>
<line stroke-width="5" x1="1891.425" y1="369.65" x2="1891.425" y2="424.75"/>
<line stroke-width="5" x1="1940.325" y1="424.75" x2="1891.425" y2="424.75"/>
<line stroke-width="5" x1="1938.225" y1="449.549" x2="1940.325" y2="449.549"/>
<polyline stroke-width="5" points="
	2047.725,353.15 2132.325,353.15 2132.325,575.549 "/>
<line stroke-width="5" x1="1891.425" y1="449.549" x2="1896.925" y2="449.549"/>
<line stroke-width="5" x1="2004.325" y1="451.65" x2="2004.325" y2="449.549"/>
<line stroke-width="5" x1="2004.325" y1="449.549" x2="1998.125" y2="449.549"/>
<line stroke-width="5" x1="1891.425" y1="424.75" x2="1891.425" y2="449.549"/>
<line stroke-width="5" x1="1980.225" y1="353.15" x2="1920.325" y2="353.15"/>
<polyline stroke-width="5" points="
	2004.325,449.549 2004.325,424.75 1940.325,424.75 "/>
<line stroke-width="5" x1="1940.325" y1="449.549" x2="1940.325" y2="424.75"/>
<line stroke-width="5" x1="2020.825" y1="575.549" x2="2003.025" y2="575.549"/>
<line stroke-width="5" x1="2003.025" y1="575.549" x2="1967.625" y2="575.549"/>
<polyline stroke-width="5" points="
	1891.425,449.549 1891.425,575.549 1929.325,575.549 "/>
<line stroke-width="5" x1="1944.425" y1="449.549" x2="1940.325" y2="449.549"/>
<polyline stroke-width="5" points="
	2132.325,575.549 2132.325,637.45 2003.025,637.45 2003.025,575.549 "/>
<line stroke-width="5" x1="2132.325" y1="575.549" x2="2114.725" y2="575.549"/>
<line stroke-width="5" x1="2047.725" y1="575.549" x2="2057.725" y2="575.549"/>
<polyline stroke-width="5" points="
	2022.925,391.65 2047.725,391.65 2047.725,353.15 "/>
<line stroke-width="5" x1="2022.925" y1="353.15" x2="2047.725" y2="353.15"/>
<line stroke-width="5" x1="2003.025" y1="575.549" x2="2003.025" y2="485.35"/>
<line stroke-width="2" x1="2214.125" y1="575.549" x2="2157.125" y2="575.549"/>
<line stroke-width="2" x1="2304.225" y1="575.549" x2="2342.425" y2="575.549"/>
<line stroke-width="2" x1="2254.325" y1="353.15" x2="2287.425" y2="353.049"/>
<line stroke-width="5" x1="2248.825" y1="353.15" x2="2254.325" y2="353.15"/>
<line stroke-width="5" x1="2287.425" y1="353.049" x2="2291.625" y2="353.15"/>
<line stroke-width="5" x1="2291.625" y1="390.35" x2="2291.625" y2="353.15"/>
<line stroke-width="5" x1="2248.825" y1="356.549" x2="2248.825" y2="353.15"/>
<polyline stroke-width="5" points="
	2351.425,353.15 2351.425,369.65 2380.325,369.65 "/>
<polyline stroke-width="5" points="
	2351.425,353.15 2380.325,353.15 2380.325,369.65 "/>
<line stroke-width="5" x1="2380.325" y1="369.65" x2="2380.325" y2="424.75"/>
<line stroke-width="5" x1="2331.525" y1="424.75" x2="2380.325" y2="424.75"/>
<line stroke-width="5" x1="2333.625" y1="449.549" x2="2331.525" y2="449.549"/>
<polyline stroke-width="5" points="
	2224.125,353.15 2139.425,353.15 2139.425,575.549 "/>
<line stroke-width="5" x1="2380.325" y1="449.549" x2="2374.825" y2="449.549"/>
<line stroke-width="5" x1="2267.425" y1="451.65" x2="2267.425" y2="449.549"/>
<line stroke-width="5" x1="2267.425" y1="449.549" x2="2273.725" y2="449.549"/>
<line stroke-width="5" x1="2380.325" y1="424.75" x2="2380.325" y2="449.549"/>
<line stroke-width="5" x1="2291.625" y1="353.15" x2="2351.425" y2="353.15"/>
<polyline stroke-width="5" points="
	2267.425,449.549 2267.425,424.75 2331.525,424.75 "/>
<line stroke-width="5" x1="2331.525" y1="449.549" x2="2331.525" y2="424.75"/>
<line stroke-width="5" x1="2250.925" y1="575.549" x2="2268.825" y2="575.549"/>
<line stroke-width="5" x1="2268.825" y1="575.549" x2="2304.225" y2="575.549"/>
<polyline stroke-width="5" points="
	2380.325,449.549 2380.325,575.549 2342.425,575.549 "/>
<line stroke-width="5" x1="2327.325" y1="449.549" x2="2331.525" y2="449.549"/>
<polyline stroke-width="5" points="
	2139.425,575.549 2139.425,637.45 2268.825,637.45 2268.825,575.549 "/>
<line stroke-width="5" x1="2139.425" y1="575.549" x2="2157.125" y2="575.549"/>
<line stroke-width="5" x1="2224.125" y1="575.549" x2="2214.125" y2="575.549"/>
<polyline stroke-width="5" points="
	2248.825,391.65 2224.125,391.65 2224.125,353.15 "/>
<line stroke-width="5" x1="2248.825" y1="353.15" x2="2224.125" y2="353.15"/>
<line stroke-width="5" x1="2268.825" y1="575.549" x2="2268.825" y2="485.35"/>
</g>
</svg>
